# xmcd CD database file
#
# Track frame offsets:
#	150
#	24200
#	47715
#	67790
#	89525
#	115577
#	135341
#	152877
#	174011
#	193745
#	208755
#
# Disc length: 2993 seconds
#
# Revision: 1
# Processed by: cddbd v1.5.2PL0 Copyright (c) Steve Scherf et al.
# Submitted via: CDex 1.51
#
DISCID=840baf0b
DTITLE=Depart - Reloaded
DYEAR=2006
DGENRE=Jazz
TTITLE0=Timeless Dreams
TTITLE1=Du liebä Bueb vom Ämmital
TTITLE2=Magic Transition
TTITLE3=Chlüppli Groove
TTITLE4=Mingus
TTITLE5=Drei im Quadrat
TTITLE6=Another World
TTITLE7=One for Eddie Who?
TTITLE8=Funky Fun-Key
TTITLE9=Bassaxunison
TTITLE10=They Say it's Spring 
EXTD=YEAR: 2006
EXTT0=
EXTT1=
EXTT2=
EXTT3=
EXTT4=
EXTT5=
EXTT6=
EXTT7=
EXTT8=
EXTT9=
EXTT10=
PLAYORDER=
